<svg width="37" height="36" viewBox="0 0 37 36" fill="none" xmlns="http://www.w3.org/2000/svg">
<g clip-path="url(#clip0_3010_17596)">
<g clip-path="url(#clip1_3010_17596)">
<path d="M25.8949 7.76034H19.6364V0H17.4439V0.00329322L13.6268 2.28901L17.4439 4.57472V7.76041H11.1854V19.6865H1.00012V35.08H36.0801V19.6865H25.8949V7.76034ZM13.3779 9.95284H23.7023V19.6865H13.3779V9.95284ZM33.8876 32.8875H3.19262V21.879H33.8876V32.8875Z" fill="#242424"/>
<path d="M8.24097 23.9917H6.00244V26.1842H8.24097V23.9917Z" fill="#242424"/>
<path d="M8.24097 28.6284H6.00244V30.8209H8.24097V28.6284Z" fill="#242424"/>
<path d="M12.8079 28.5366H10.5693V30.7291H12.8079V28.5366Z" fill="#242424"/>
<path d="M12.7631 23.9917H10.5245V26.1842H12.7631V23.9917Z" fill="#242424"/>
<path d="M17.3297 23.9463H15.0912V26.1388H17.3297V23.9463Z" fill="#242424"/>
<path d="M17.3297 28.5825H15.0912V30.775H17.3297V28.5825Z" fill="#242424"/>
<path d="M21.8981 28.5825H19.6595V30.775H21.8981V28.5825Z" fill="#242424"/>
<path d="M21.8981 23.9917H19.6595V26.1842H21.8981V23.9917Z" fill="#242424"/>
<path d="M31.0789 23.9917H28.8403V26.1842H31.0789V23.9917Z" fill="#242424"/>
<path d="M26.5109 28.5366H24.2723V30.7291H26.5109V28.5366Z" fill="#242424"/>
<path d="M31.0789 28.5825H28.8403V30.775H31.0789V28.5825Z" fill="#242424"/>
<path d="M26.5109 23.9463H24.2723V26.1388H26.5109V23.9463Z" fill="#242424"/>
<path d="M17.8101 11.8384H15.5715V14.0309H17.8101V11.8384Z" fill="#242424"/>
<path d="M17.8101 15.6289H15.5715V17.8214H17.8101V15.6289Z" fill="#242424"/>
<path d="M21.4638 15.584H19.2252V17.7765H21.4638V15.584Z" fill="#242424"/>
<path d="M21.5099 11.8384H19.2714V14.0309H21.5099V11.8384Z" fill="#242424"/>
</g>
</g>
<defs>
<clipPath id="clip0_3010_17596">
<rect width="35.0769" height="35.0769" fill="white" transform="translate(0.961548 0.461914)"/>
</clipPath>
<clipPath id="clip1_3010_17596">
<rect width="35.08" height="35.08" fill="white" transform="translate(1.00012)"/>
</clipPath>
</defs>
</svg>
