<svg width="17" height="17" viewBox="0 0 17 17" fill="none" xmlns="http://www.w3.org/2000/svg">
  <rect x="4" y="4" width="8" height="8" fill="white" />
  <path
    d="M8.09147 1.51709C4.46666 1.51709 1.51758 4.46649 1.51758 8.09098C1.51758 11.7212 4.46129 14.6649 8.09147 14.6649C11.7163 14.6649 14.6654 11.7158 14.6654 8.09098C14.6654 4.46049 11.722 1.51709 8.09147 1.51709ZM8.09147 11.4095C7.30354 11.4095 6.54788 11.0965 5.99073 10.5394C5.43358 9.98223 5.12058 9.22657 5.12058 8.43864C5.12058 7.65071 5.43358 6.89505 5.99073 6.3379C6.54788 5.78075 7.30354 5.46775 8.09147 5.46775H8.22453L7.77858 5.02211C7.69559 4.93913 7.64897 4.82658 7.64897 4.70922C7.64897 4.59186 7.69559 4.47931 7.77858 4.39633C7.86156 4.31334 7.97411 4.26672 8.09147 4.26672C8.20883 4.26672 8.32138 4.31334 8.40436 4.39633L9.66857 5.66054C9.70966 5.70163 9.74226 5.75041 9.7645 5.80409C9.78674 5.85778 9.79818 5.91532 9.79818 5.97343C9.79818 6.03154 9.78674 6.08908 9.7645 6.14277C9.74226 6.19645 9.70966 6.24523 9.66857 6.28632L8.40436 7.55053C8.32138 7.63351 8.20883 7.68014 8.09147 7.68014C7.97411 7.68014 7.86156 7.63351 7.77858 7.55053C7.69559 7.46755 7.64897 7.355 7.64897 7.23764C7.64897 7.12028 7.69559 7.00773 7.77858 6.92475L8.34747 6.35585C8.27225 6.35269 8.18628 6.35269 8.09147 6.35269C7.67891 6.35269 7.27561 6.47503 6.93258 6.70424C6.58955 6.93344 6.32219 7.25922 6.16431 7.64038C6.00643 8.02154 5.96512 8.44095 6.0456 8.84559C6.12609 9.25022 6.32476 9.6219 6.61648 9.91362C6.90821 10.2053 7.27989 10.404 7.68452 10.4845C8.08915 10.565 8.50857 10.5237 8.88973 10.3658C9.27088 10.2079 9.59666 9.94056 9.82587 9.59753C10.0551 9.2545 10.1774 8.8512 10.1774 8.43864C10.1774 8.32129 10.224 8.20874 10.307 8.12576C10.39 8.04278 10.5025 7.99616 10.6199 7.99616C10.7372 7.99616 10.8498 8.04278 10.9328 8.12576C11.0157 8.20874 11.0624 8.32129 11.0624 8.43864C11.0614 9.22629 10.7481 9.98141 10.1912 10.5384C9.63424 11.0953 8.87912 11.4086 8.09147 11.4095Z"
    fill="#4857EC" />
</svg>