<svg width="67" height="66" viewBox="0 0 67 66" fill="none" xmlns="http://www.w3.org/2000/svg">
<circle cx="33.7113" cy="32.8487" r="32.7872" fill="#E4D5FF"/>
<g clip-path="url(#clip0_3542_33519)">
<path d="M46.32 44.1988H45.6895V43.5682C45.6895 42.7473 45.1611 42.0537 44.4285 41.7927V32.7333C45.1612 32.4723 45.6895 31.7787 45.6895 30.9578V30.3272H46.32C46.6681 30.3272 46.9506 30.0448 46.9506 29.6967V27.8051H47.5811C47.8611 27.8051 48.1082 27.6198 48.1864 27.3512C48.2646 27.0826 48.1562 26.7938 47.9204 26.6425L34.0488 17.8152C33.842 17.684 33.5784 17.684 33.3716 17.8152L19.5001 26.6425C19.263 26.7938 19.1558 27.0813 19.234 27.3512C19.3122 27.621 19.5594 27.8051 19.8393 27.8051H20.4698V29.6967C20.4698 30.0448 20.7523 30.3272 21.1004 30.3272H21.7309V30.9578C21.7309 31.7787 22.2593 32.4723 22.9919 32.7333V41.7927C22.2592 42.0537 21.7309 42.7473 21.7309 43.5682V44.1988H21.1004C20.0575 44.1988 19.2088 45.0474 19.2088 46.0903V47.3514C19.2088 47.6994 19.4913 47.9819 19.8393 47.9819H47.5823C47.9304 47.9819 48.2129 47.6994 48.2129 47.3514V46.0903C48.2116 45.0474 47.3629 44.1988 46.32 44.1988ZM29.5771 24.128L33.3603 21.6059C33.5721 21.4647 33.8483 21.4647 34.0601 21.6059L37.8433 24.128C38.074 24.2819 38.1774 24.5694 38.0967 24.8354C38.0161 25.1015 37.7702 25.2831 37.4927 25.2831H29.9264C29.649 25.2831 29.4031 25.1015 29.3224 24.8354C29.2417 24.5693 29.3464 24.2818 29.5771 24.128ZM31.818 41.7927C31.0853 42.0537 30.557 42.7473 30.557 43.5682V44.1988H28.0348V43.5682C28.0348 42.7473 27.5064 42.0537 26.7738 41.7927V32.7333C27.5065 32.4723 28.0348 31.7787 28.0348 30.9578V30.3272H30.557V30.9578C30.557 31.7787 31.0854 32.4723 31.818 32.7333V41.7927ZM40.6453 41.7927C39.9127 42.0537 39.3843 42.7473 39.3843 43.5682V44.1988H36.8622V43.5682C36.8622 42.7473 36.3338 42.0537 35.6012 41.7927V32.7333C36.3339 32.4723 36.8622 31.7787 36.8622 30.9578V30.3272H39.3843V30.9578C39.3843 31.7787 39.9127 32.4723 40.6453 32.7333V41.7927Z" fill="#7349C0"/>
</g>
<defs>
<clipPath id="clip0_3542_33519">
<rect width="30.2651" height="30.2651" fill="white" transform="translate(18.5784 17.7168)"/>
</clipPath>
</defs>
</svg>
