<svg width="67" height="66" viewBox="0 0 67 66" fill="none" xmlns="http://www.w3.org/2000/svg">
<circle cx="33.7115" cy="32.8487" r="32.7872" fill="#FFF0D8"/>
<g clip-path="url(#clip0_3542_33496)">
<g clip-path="url(#clip1_3542_33496)">
<path d="M40.093 24.0141H34.6931V17.3184H32.8013V17.3212L29.5078 19.2934L32.8013 21.2655V24.0142H27.4014V34.3043H18.6133V47.5861H48.881V34.3042H40.093V24.0141ZM29.293 25.9059H38.2012V34.3042H29.293V25.9059ZM46.9893 45.6944H20.505V36.196H46.9893V45.6944Z" fill="#F8B442"/>
<path d="M24.8611 38.0186H22.9297V39.9103H24.8611V38.0186Z" fill="#F8B442"/>
<path d="M24.8611 42.0195H22.9297V43.9113H24.8611V42.0195Z" fill="#F8B442"/>
<path d="M28.8016 41.9404H26.8701V43.8322H28.8016V41.9404Z" fill="#F8B442"/>
<path d="M28.7625 38.0186H26.8311V39.9103H28.7625V38.0186Z" fill="#F8B442"/>
<path d="M32.7044 37.9795H30.7729V39.8712H32.7044V37.9795Z" fill="#F8B442"/>
<path d="M32.7044 41.9795H30.7729V43.8712H32.7044V41.9795Z" fill="#F8B442"/>
<path d="M36.6458 41.9795H34.7144V43.8712H36.6458V41.9795Z" fill="#F8B442"/>
<path d="M36.6458 38.0186H34.7144V39.9103H36.6458V38.0186Z" fill="#F8B442"/>
<path d="M44.5662 38.0186H42.6348V39.9103H44.5662V38.0186Z" fill="#F8B442"/>
<path d="M40.6248 41.9404H38.6934V43.8322H40.6248V41.9404Z" fill="#F8B442"/>
<path d="M44.5662 41.9795H42.6348V43.8712H44.5662V41.9795Z" fill="#F8B442"/>
<path d="M40.6248 37.9795H38.6934V39.8712H40.6248V37.9795Z" fill="#F8B442"/>
<path d="M33.119 27.5322H31.1875V29.424H33.119V27.5322Z" fill="#F8B442"/>
<path d="M33.119 30.8037H31.1875V32.6954H33.119V30.8037Z" fill="#F8B442"/>
<path d="M36.2703 30.7646H34.3389V32.6564H36.2703V30.7646Z" fill="#F8B442"/>
<path d="M36.3104 27.5322H34.3789V29.424H36.3104V27.5322Z" fill="#F8B442"/>
</g>
</g>
<defs>
<clipPath id="clip0_3542_33496">
<rect width="30.2651" height="30.2651" fill="white" transform="translate(18.5791 17.7168)"/>
</clipPath>
<clipPath id="clip1_3542_33496">
<rect width="30.2677" height="30.2677" fill="white" transform="translate(18.6133 17.3184)"/>
</clipPath>
</defs>
</svg>
