<svg width="67" height="66" viewBox="0 0 67 66" fill="none" xmlns="http://www.w3.org/2000/svg">
<circle cx="33.7105" cy="32.8487" r="32.7872" fill="#FFE7E7"/>
<path d="M33.71 39.8857C33.5458 39.8857 33.3843 39.8428 33.2417 39.7613L24.9807 35.0398C24.909 34.9983 24.8275 34.9765 24.7446 34.9766C24.6617 34.9766 24.5803 34.9985 24.5086 35.04C24.4368 35.0815 24.3773 35.1411 24.3359 35.2129C24.2945 35.2848 24.2728 35.3662 24.2729 35.4491V39.8857C24.2728 40.0542 24.3178 40.2196 24.4031 40.3648C24.4885 40.51 24.6111 40.6297 24.7584 40.7115L33.2518 45.43C33.392 45.5079 33.5497 45.5488 33.71 45.5488C33.8704 45.5488 34.0281 45.5079 34.1683 45.43L42.6617 40.7115C42.809 40.6297 42.9316 40.51 43.017 40.3648C43.1023 40.2196 43.1473 40.0542 43.1471 39.8857V35.4491C43.1473 35.3662 43.1256 35.2848 43.0842 35.2129C43.0428 35.1411 42.9833 35.0815 42.9115 35.04C42.8398 34.9985 42.7584 34.9766 42.6755 34.9766C42.5926 34.9765 42.5111 34.9983 42.4394 35.0398L34.1784 39.7613C34.0358 39.8428 33.8743 39.8857 33.71 39.8857Z" fill="#FA5157"/>
<path d="M47.8604 29.4166V29.4101C47.8451 29.2605 47.7944 29.1167 47.7123 28.9907C47.6302 28.8648 47.5192 28.7602 47.3885 28.6858L34.1766 21.1361C34.034 21.0546 33.8726 21.0117 33.7083 21.0117C33.544 21.0117 33.3826 21.0546 33.24 21.1361L20.028 28.6858C19.8836 28.7684 19.7636 28.8876 19.6802 29.0315C19.5967 29.1754 19.5527 29.3387 19.5527 29.5051C19.5527 29.6714 19.5967 29.8348 19.6802 29.9786C19.7636 30.1225 19.8836 30.2418 20.028 30.3243L33.24 37.874C33.3826 37.9555 33.544 37.9984 33.7083 37.9984C33.8726 37.9984 34.034 37.9555 34.1766 37.874L45.8008 31.232C45.8187 31.2217 45.8391 31.2162 45.8599 31.2162C45.8806 31.2163 45.901 31.2218 45.9189 31.2322C45.9369 31.2426 45.9518 31.2575 45.9621 31.2755C45.9724 31.2935 45.9778 31.3139 45.9777 31.3347V39.8593C45.9777 40.3672 46.3682 40.803 46.876 40.8284C47.0036 40.8345 47.1311 40.8147 47.2508 40.7701C47.3705 40.7255 47.4799 40.6571 47.5724 40.569C47.6649 40.4809 47.7385 40.3749 47.7889 40.2574C47.8392 40.14 47.8651 40.0136 47.8651 39.8859V29.5051C47.8651 29.4755 47.8635 29.446 47.8604 29.4166Z" fill="#FA5157"/>
</svg>
