<svg width="1440" height="623" viewBox="0 0 1440 623" fill="none" xmlns="http://www.w3.org/2000/svg">
<path opacity="0.09" d="M0 224L80 197.3C160 171 320 117 480 112C640 107 800 149 960 160C1120 171 1280 149 1360 138.7L1440 128V320H1360C1280 320 1120 320 960 320C800 320 640 320 480 320C320 320 160 320 80 320H0V224Z" fill="url(#paint0_linear_3542_33358)"/>
<path opacity="0.09" d="M0 563L80 550.5C157.5 550.5 320 512.216 480 516.95C640 521.685 800 576.916 960 566.5C1120 556.085 1280 481.916 1360 491.669L1440 501.8V320H1360C1280 320 1120 320 960 320C800 320 640 320 480 320C320 320 160 320 80 320H0V563Z" fill="url(#paint1_linear_3542_33358)"/>
<defs>
<linearGradient id="paint0_linear_3542_33358" x1="-790.5" y1="-8.1848" x2="936.605" y2="1102.66" gradientUnits="userSpaceOnUse">
<stop stop-color="#FF1B7B"/>
<stop offset="1" stop-color="#4C70FF"/>
</linearGradient>
<linearGradient id="paint1_linear_3542_33358" x1="-790.5" y1="630.751" x2="880.206" y2="-504.11" gradientUnits="userSpaceOnUse">
<stop stop-color="#FF1B7B"/>
<stop offset="1" stop-color="#4C70FF"/>
</linearGradient>
</defs>
</svg>
