<svg width="37" height="36" viewBox="0 0 37 36" fill="none" xmlns="http://www.w3.org/2000/svg">
<g clip-path="url(#clip0_3010_21)">
<path d="M33.1141 31.1542H32.3833V30.4234C32.3833 29.472 31.7709 28.6682 30.9218 28.3656V17.8659C31.771 17.5634 32.3833 16.7595 32.3833 15.8081V15.0773H33.1141C33.5175 15.0773 33.8449 14.7499 33.8449 14.3465V12.1542H34.5757C34.9002 12.1542 35.1866 11.9393 35.2772 11.628C35.3679 11.3167 35.2421 10.9821 34.9689 10.8067L18.8918 0.575931C18.6521 0.423908 18.3467 0.423908 18.107 0.575931L2.03006 10.8067C1.75526 10.9821 1.63106 11.3153 1.72169 11.628C1.81233 11.9408 2.09877 12.1542 2.42323 12.1542H3.15396V14.3465C3.15396 14.7499 3.48136 15.0773 3.88475 15.0773H4.61554V15.8081C4.61554 16.7595 5.22795 17.5634 6.07706 17.8659V28.3656C5.22788 28.6682 4.61554 29.472 4.61554 30.4234V31.1542H3.88475C2.67603 31.1542 1.69244 32.1378 1.69244 33.3465V34.8081C1.69244 35.2114 2.01985 35.5389 2.42323 35.5389H34.5771C34.9804 35.5389 35.3078 35.2114 35.3078 34.8081V33.3465C35.3064 32.1378 34.3228 31.1542 33.1141 31.1542ZM13.7092 7.89242L18.0938 4.96932C18.3394 4.80565 18.6595 4.80565 18.905 4.96932L23.2896 7.89242C23.5571 8.07075 23.6769 8.40398 23.5834 8.71234C23.4899 9.0207 23.2049 9.23116 22.8833 9.23116H14.1141C13.7925 9.23116 13.5075 9.0207 13.414 8.71234C13.3204 8.40391 13.4418 8.07068 13.7092 7.89242ZM16.3064 28.3656C15.4572 28.6682 14.8448 29.472 14.8448 30.4234V31.1542H11.9217V30.4234C11.9217 29.472 11.3093 28.6682 10.4602 28.3656V17.8659C11.3094 17.5634 11.9217 16.7595 11.9217 15.8081V15.0773H14.8448V15.8081C14.8448 16.7595 15.4573 17.5634 16.3064 17.8659V28.3656ZM26.5372 28.3656C25.688 28.6682 25.0757 29.472 25.0757 30.4234V31.1542H22.1526V30.4234C22.1526 29.472 21.5402 28.6682 20.691 28.3656V17.8659C21.5402 17.5634 22.1526 16.7595 22.1526 15.8081V15.0773H25.0757V15.8081C25.0757 16.7595 25.6881 17.5634 26.5372 17.8659V28.3656Z" fill="#242424"/>
</g>
<defs>
<clipPath id="clip0_3010_21">
<rect width="35.0769" height="35.0769" fill="white" transform="translate(0.961426 0.461914)"/>
</clipPath>
</defs>
</svg>
