<svg width="35" height="35" viewBox="0 0 35 35" fill="none" xmlns="http://www.w3.org/2000/svg">
<path d="M17.5 25.1565C17.3096 25.1565 17.1225 25.1067 16.9572 25.0122L7.38281 19.5401C7.29962 19.492 7.20524 19.4668 7.10917 19.4668C7.01311 19.4668 6.91875 19.4922 6.83559 19.5403C6.75243 19.5884 6.68341 19.6575 6.63547 19.7408C6.58752 19.824 6.56236 19.9184 6.5625 20.0145V25.1565C6.56234 25.3517 6.61442 25.5434 6.71335 25.7117C6.81228 25.88 6.95445 26.0187 7.1251 26.1135L16.9688 31.5823C17.1313 31.6725 17.3141 31.7199 17.5 31.7199C17.6859 31.7199 17.8687 31.6725 18.0312 31.5823L27.8749 26.1135C28.0455 26.0187 28.1877 25.88 28.2866 25.7117C28.3856 25.5434 28.4377 25.3517 28.4375 25.1565V20.0145C28.4376 19.9184 28.4125 19.824 28.3645 19.7408C28.3166 19.6575 28.2476 19.5884 28.1644 19.5403C28.0813 19.4922 27.9869 19.4668 27.8908 19.4668C27.7948 19.4668 27.7004 19.492 27.6172 19.5401L18.0428 25.0122C17.8775 25.1067 17.6904 25.1565 17.5 25.1565Z" fill="#242424"/>
<path d="M33.9008 13.0224V13.0149C33.8831 12.8415 33.8242 12.6749 33.7291 12.5289C33.634 12.3828 33.5053 12.2617 33.3539 12.1754L18.0414 3.42543C17.8761 3.33095 17.689 3.28125 17.4986 3.28125C17.3082 3.28125 17.1211 3.33095 16.9558 3.42543L1.64334 12.1754C1.47599 12.2711 1.3369 12.4093 1.24016 12.5761C1.14342 12.7428 1.09247 12.9322 1.09247 13.1249C1.09247 13.3177 1.14342 13.5071 1.24016 13.6738C1.3369 13.8406 1.47599 13.9788 1.64334 14.0745L16.9558 22.8245C17.1211 22.9189 17.3082 22.9686 17.4986 22.9686C17.689 22.9686 17.8761 22.9189 18.0414 22.8245L31.5137 15.1265C31.5345 15.1145 31.5581 15.1082 31.5821 15.1082C31.6062 15.1082 31.6298 15.1146 31.6506 15.1266C31.6714 15.1387 31.6887 15.156 31.7006 15.1769C31.7126 15.1978 31.7188 15.2214 31.7187 15.2454V25.1254C31.7187 25.714 32.1713 26.2192 32.7598 26.2486C32.9077 26.2557 33.0555 26.2327 33.1943 26.181C33.333 26.1294 33.4598 26.0501 33.567 25.9479C33.6742 25.8458 33.7595 25.7229 33.8178 25.5869C33.8761 25.4508 33.9062 25.3042 33.9062 25.1562V13.1249C33.9062 13.0907 33.9043 13.0565 33.9008 13.0224Z" fill="#242424"/>
</svg>
