<svg width="29" height="24" viewBox="0 0 29 24" fill="none" xmlns="http://www.w3.org/2000/svg">
<path fill-rule="evenodd" clip-rule="evenodd" d="M13.5233 1.10644C13.6857 1.03708 13.8649 1.00098 14.0465 1.00098C14.2281 1.00098 14.4072 1.03708 14.5697 1.10644L26.2748 6.10644C26.5103 6.2073 26.6991 6.3731 26.8107 6.57703C26.9223 6.78095 26.95 7.01106 26.8895 7.23014C26.829 7.44922 26.6837 7.64445 26.4772 7.78424C26.2707 7.92403 26.015 8.0002 25.7515 8.00044H2.34141C2.07793 8.0002 1.82225 7.92403 1.61574 7.78424C1.40923 7.64445 1.26396 7.44922 1.20344 7.23014C1.14292 7.01106 1.17069 6.78095 1.28225 6.57703C1.39381 6.3731 1.58264 6.2073 1.81819 6.10644L13.5233 1.10644ZM7.29967 6.00044H20.7933L14.0465 3.11844L7.29967 6.00044ZM7.02343 9.00044C7.33387 9.00044 7.63159 9.1058 7.85111 9.29334C8.07062 9.48087 8.19394 9.73523 8.19394 10.0004V15.0004C8.19394 15.2657 8.07062 15.52 7.85111 15.7075C7.63159 15.8951 7.33387 16.0004 7.02343 16.0004C6.713 16.0004 6.41527 15.8951 6.19576 15.7075C5.97625 15.52 5.85293 15.2657 5.85293 15.0004V10.0004C5.85293 9.73523 5.97625 9.48087 6.19576 9.29334C6.41527 9.1058 6.713 9.00044 7.02343 9.00044ZM11.7055 9.00044C12.0159 9.00044 12.3136 9.1058 12.5331 9.29334C12.7526 9.48087 12.876 9.73523 12.876 10.0004V15.0004C12.876 15.2657 12.7526 15.52 12.5331 15.7075C12.3136 15.8951 12.0159 16.0004 11.7055 16.0004C11.395 16.0004 11.0973 15.8951 10.8778 15.7075C10.6583 15.52 10.535 15.2657 10.535 15.0004V10.0004C10.535 9.73523 10.6583 9.48087 10.8778 9.29334C11.0973 9.1058 11.395 9.00044 11.7055 9.00044ZM16.3875 9.00044C16.6979 9.00044 16.9956 9.1058 17.2152 9.29334C17.4347 9.48087 17.558 9.73523 17.558 10.0004V15.0004C17.558 15.2657 17.4347 15.52 17.2152 15.7075C16.9956 15.8951 16.6979 16.0004 16.3875 16.0004C16.077 16.0004 15.7793 15.8951 15.5598 15.7075C15.3403 15.52 15.217 15.2657 15.217 15.0004V10.0004C15.217 9.73523 15.3403 9.48087 15.5598 9.29334C15.7793 9.1058 16.077 9.00044 16.3875 9.00044ZM21.0695 9.00044C21.38 9.00044 21.6777 9.1058 21.8972 9.29334C22.1167 9.48087 22.24 9.73523 22.24 10.0004V15.0004C22.24 15.2657 22.1167 15.52 21.8972 15.7075C21.6777 15.8951 21.38 16.0004 21.0695 16.0004C20.7591 16.0004 20.4614 15.8951 20.2418 15.7075C20.0223 15.52 19.899 15.2657 19.899 15.0004V10.0004C19.899 9.73523 20.0223 9.48087 20.2418 9.29334C20.4614 9.1058 20.7591 9.00044 21.0695 9.00044ZM3.51191 18.0004C3.51191 17.7352 3.63523 17.4809 3.85475 17.2933C4.07426 17.1058 4.37198 17.0004 4.68242 17.0004H23.4105C23.721 17.0004 24.0187 17.1058 24.2382 17.2933C24.4577 17.4809 24.581 17.7352 24.581 18.0004C24.581 18.2657 24.4577 18.52 24.2382 18.7076C24.0187 18.8951 23.721 19.0004 23.4105 19.0004H4.68242C4.37198 19.0004 4.07426 18.8951 3.85475 18.7076C3.63523 18.52 3.51191 18.2657 3.51191 18.0004ZM1.1709 21.0004C1.1709 20.7352 1.29422 20.4809 1.51373 20.2933C1.73324 20.1058 2.03097 20.0004 2.34141 20.0004H25.7515C26.062 20.0004 26.3597 20.1058 26.5792 20.2933C26.7987 20.4809 26.922 20.7352 26.922 21.0004C26.922 21.2657 26.7987 21.52 26.5792 21.7076C26.3597 21.8951 26.062 22.0004 25.7515 22.0004H2.34141C2.03097 22.0004 1.73324 21.8951 1.51373 21.7076C1.29422 21.52 1.1709 21.2657 1.1709 21.0004Z" fill="#B0B7C3"/>
</svg>
