<svg width="24" height="24" viewBox="0 0 24 24" fill="none" xmlns="http://www.w3.org/2000/svg">
<path d="M5.57489 2.07403C5.83474 2.19892 6 2.4617 6 2.75001C6 3.57985 6.31211 4.05763 6.70313 4.63948L6.73156 4.68175C7.0641 5.17579 7.5 5.8234 7.5 6.75001C7.5 7.69552 7.02282 8.52959 6.29615 9.02452C6.48733 9.1848 6.65672 9.38248 6.80225 9.61803C7.27801 10.388 7.5 11.5645 7.5 13.2549C7.5 14.967 7.27003 17.023 6.89541 18.6644C6.70914 19.4806 6.47843 20.2335 6.20272 20.7994C6.06598 21.08 5.89948 21.3541 5.69217 21.5685C5.48714 21.7804 5.17035 22.0049 4.75 22.0049C4.32965 22.0049 4.01286 21.7804 3.80783 21.5685C3.60052 21.3541 3.43402 21.08 3.29728 20.7994C3.02157 20.2335 2.79086 19.4806 2.60459 18.6644C2.22997 17.023 2 14.967 2 13.2549C2 11.5645 2.22199 10.388 2.69775 9.61803C2.84328 9.38248 3.01267 9.1848 3.20385 9.02452C2.47718 8.52959 2 7.69552 2 6.75001C2 6.38181 2.00034 5.74889 2.38341 4.93168C2.75829 4.13192 3.47066 3.21301 4.78148 2.16436C5.00661 1.98425 5.31504 1.94914 5.57489 2.07403Z" fill="#B0B7C3"/>
<path d="M9.99945 14.917C9.46113 14.8267 8.94712 14.6647 8.46757 14.4412C8.48855 14.0349 8.49945 13.637 8.49945 13.2549C8.49945 12.8491 8.48744 12.461 8.46102 12.0915C8.90416 12.4558 9.42701 12.7266 9.99945 12.874V10.5C9.99945 9.67157 10.671 9 11.4994 9H14.9994C14.9994 6.79086 13.2086 5 10.9994 5C10.0141 5 9.11202 5.35626 8.41491 5.94699C8.24124 5.13337 7.83908 4.53662 7.58226 4.15554L7.54199 4.09572C8.51927 3.40549 9.71201 3 10.9994 3C14.3131 3 16.9994 5.68629 16.9994 9H20.4994C21.3279 9 21.9994 9.67157 21.9994 10.5V19.5C21.9994 20.3284 21.3279 21 20.4994 21H11.4994C10.671 21 9.99945 20.3284 9.99945 19.5V14.917ZM11.9994 14.917V19H19.9994V11H16.658C15.9418 13.0265 14.1678 14.5533 11.9994 14.917ZM14.4643 11H11.9994V12.874C13.0503 12.6035 13.934 11.9168 14.4643 11Z" fill="#B0B7C3"/>
</svg>
